<svg width="50" height="50" viewBox="0 0 50 50" fill="none" xmlns="http://www.w3.org/2000/svg">
<g clip-path="url(#clip0_75_973)">
<path fill-rule="evenodd" clip-rule="evenodd" d="M39.1667 50H10.8334C9.4099 50.0029 7.9999 49.7246 6.68425 49.1812C5.36861 48.6378 4.17322 47.8399 3.16669 46.8334C2.16015 45.8268 1.36228 44.6314 0.818867 43.3158C0.275448 42.0001 -0.00282288 40.5901 2.15883e-05 39.1667V10.8334C-0.00282288 9.4099 0.275448 7.9999 0.818867 6.68425C1.36228 5.36861 2.16015 4.17322 3.16669 3.16669C4.17322 2.16015 5.36861 1.36228 6.68425 0.818867C7.9999 0.275448 9.4099 -0.00282288 10.8334 2.15883e-05H39.1667C40.5901 -0.00282288 42.0001 0.275448 43.3158 0.818867C44.6314 1.36228 45.8268 2.16015 46.8334 3.16669C47.8399 4.17322 48.6378 5.36861 49.1812 6.68425C49.7246 7.9999 50.0029 9.4099 50 10.8334V39.1667C50.0029 40.5901 49.7246 42.0001 49.1812 43.3158C48.6378 44.6314 47.8399 45.8268 46.8334 46.8334C45.8268 47.8399 44.6314 48.6378 43.3158 49.1812C42.0001 49.7246 40.5901 50.0029 39.1667 50Z" fill="url(#paint0_linear_75_973)"/>
<path fill-rule="evenodd" clip-rule="evenodd" d="M36.6663 30.2083V31.6666C36.6658 32.6028 36.5821 33.537 36.4163 34.4583C36.3354 34.9279 36.1609 35.3764 35.9032 35.7773C35.6455 36.1781 35.3099 36.5231 34.9163 36.7916H34.8746C34.0439 37.422 33.0414 37.7853 31.9996 37.8333L31.208 37.9166C30.5867 37.9547 29.9652 37.8463 29.3934 37.6003C28.8217 37.3542 28.3157 36.9773 27.9163 36.5C27.5007 35.9965 27.2274 35.3909 27.1249 34.7461C27.0223 34.1014 27.0941 33.4409 27.333 32.8333V32.7916C27.5512 32.1973 27.9124 31.6659 28.3848 31.2444C28.8571 30.8229 29.4261 30.5243 30.0413 30.375L33.1663 29.5416C33.5594 29.448 33.9092 29.224 34.1588 28.9063C34.4085 28.5886 34.5433 28.1957 34.5413 27.7916V25.6666V16.7083C34.5442 16.6049 34.5231 16.5022 34.4797 16.4082C34.4364 16.3142 34.3719 16.2316 34.2913 16.1666C34.2086 16.1055 34.1137 16.0627 34.0131 16.0412C33.9125 16.0196 33.8085 16.0198 33.708 16.0416L20.3746 18.75C20.1383 18.7877 19.9237 18.9099 19.7705 19.0937C19.6173 19.2776 19.5358 19.5107 19.5413 19.75V34V35.0416C19.5408 35.9778 19.4571 36.912 19.2913 37.8333C19.2104 38.3029 19.0359 38.7514 18.7782 39.1523C18.5205 39.5531 18.1849 39.8981 17.7913 40.1666H17.7496C16.9189 40.797 15.9164 41.1603 14.8746 41.2083L14.1246 41.25C13.5034 41.288 12.8818 41.1797 12.3101 40.9336C11.7384 40.6876 11.2324 40.3107 10.833 39.8333C10.4174 39.3298 10.1441 38.7242 10.0415 38.0795C9.93895 37.4347 10.0108 36.7742 10.2496 36.1666V36.125C10.4678 35.5307 10.8291 34.9993 11.3014 34.5778C11.7738 34.1563 12.3428 33.8576 12.958 33.7083L16.083 32.875C16.476 32.7813 16.8259 32.5574 17.0755 32.2396C17.3252 31.9219 17.46 31.529 17.458 31.125V29V12.4583C17.4626 12.1028 17.5893 11.7597 17.8169 11.4866C18.0445 11.2135 18.3591 11.027 18.708 10.9583L35.4163 7.91663C35.7234 7.88062 36.0334 7.95442 36.2913 8.12496C36.4084 8.22107 36.5027 8.34189 36.5675 8.47877C36.6324 8.61564 36.6661 8.76518 36.6663 8.91663V30.2083Z" fill="#BB58BB"/>
<path fill-rule="evenodd" clip-rule="evenodd" d="M36.6663 30.2083V31.6666C36.6658 32.6028 36.5821 33.537 36.4163 34.4583C36.3354 34.9279 36.1609 35.3764 35.9032 35.7773C35.6455 36.1781 35.3099 36.5231 34.9163 36.7916H34.8746C34.0439 37.422 33.0414 37.7853 31.9996 37.8333L31.208 37.9166C30.5867 37.9547 29.9652 37.8463 29.3934 37.6003C28.8217 37.3542 28.3157 36.9773 27.9163 36.5C27.5007 35.9965 27.2274 35.3909 27.1249 34.7461C27.0223 34.1014 27.0941 33.4409 27.333 32.8333V32.7916C27.5512 32.1973 27.9124 31.6659 28.3848 31.2444C28.8571 30.8229 29.4261 30.5243 30.0413 30.375L33.1663 29.5416C33.5594 29.448 33.9092 29.224 34.1588 28.9063C34.4085 28.5886 34.5433 28.1957 34.5413 27.7916V25.6666V16.7083C34.5442 16.6049 34.5231 16.5022 34.4797 16.4082C34.4364 16.3142 34.3719 16.2316 34.2913 16.1666C34.2086 16.1055 34.1137 16.0627 34.0131 16.0412C33.9125 16.0196 33.8085 16.0198 33.708 16.0416L20.3746 18.75C20.1383 18.7877 19.9237 18.9099 19.7705 19.0937C19.6173 19.2776 19.5358 19.5107 19.5413 19.75V34V35.0416C19.5408 35.9778 19.4571 36.912 19.2913 37.8333C19.2104 38.3029 19.0359 38.7514 18.7782 39.1523C18.5205 39.5531 18.1849 39.8981 17.7913 40.1666H17.7496C16.9189 40.797 15.9164 41.1603 14.8746 41.2083L14.1246 41.25C13.5034 41.288 12.8818 41.1797 12.3101 40.9336C11.7384 40.6876 11.2324 40.3107 10.833 39.8333C10.4174 39.3298 10.1441 38.7242 10.0415 38.0795C9.93895 37.4347 10.0108 36.7742 10.2496 36.1666V36.125C10.4678 35.5307 10.8291 34.9993 11.3014 34.5778C11.7738 34.1563 12.3428 33.8576 12.958 33.7083L16.083 32.875C16.476 32.7813 16.8259 32.5574 17.0755 32.2396C17.3252 31.9219 17.46 31.529 17.458 31.125V29V12.4583C17.4626 12.1028 17.5893 11.7597 17.8169 11.4866C18.0445 11.2135 18.3591 11.027 18.708 10.9583L35.4163 7.91663C35.7234 7.88062 36.0334 7.95442 36.2913 8.12496C36.4084 8.22107 36.5027 8.34189 36.5675 8.47877C36.6324 8.61564 36.6661 8.76518 36.6663 8.91663V30.2083Z" fill="url(#paint1_radial_75_973)"/>
<path fill-rule="evenodd" clip-rule="evenodd" d="M36.6663 30.2083V31.6666C36.6658 32.6028 36.5821 33.537 36.4163 34.4583C36.3354 34.9279 36.1609 35.3764 35.9032 35.7773C35.6455 36.1781 35.3099 36.5231 34.9163 36.7916H34.8746C34.0439 37.422 33.0414 37.7853 31.9996 37.8333L31.208 37.9166C30.5867 37.9547 29.9652 37.8463 29.3934 37.6003C28.8217 37.3542 28.3157 36.9773 27.9163 36.5C27.5007 35.9965 27.2274 35.3909 27.1249 34.7461C27.0223 34.1014 27.0941 33.4409 27.333 32.8333V32.7916C27.5512 32.1973 27.9124 31.6659 28.3848 31.2444C28.8571 30.8229 29.4261 30.5243 30.0413 30.375L33.1663 29.5416C33.5594 29.448 33.9092 29.224 34.1588 28.9063C34.4085 28.5886 34.5433 28.1957 34.5413 27.7916V25.6666V16.7083C34.5442 16.6049 34.5231 16.5022 34.4797 16.4082C34.4364 16.3142 34.3719 16.2316 34.2913 16.1666C34.2086 16.1055 34.1137 16.0627 34.0131 16.0412C33.9125 16.0196 33.8085 16.0198 33.708 16.0416L20.3746 18.75C20.1383 18.7877 19.9237 18.9099 19.7705 19.0937C19.6173 19.2776 19.5358 19.5107 19.5413 19.75V34V35.0416C19.5408 35.9778 19.4571 36.912 19.2913 37.8333C19.2104 38.3029 19.0359 38.7514 18.7782 39.1523C18.5205 39.5531 18.1849 39.8981 17.7913 40.1666H17.7496C16.9189 40.797 15.9164 41.1603 14.8746 41.2083L14.1246 41.25C13.5034 41.288 12.8818 41.1797 12.3101 40.9336C11.7384 40.6876 11.2324 40.3107 10.833 39.8333C10.4174 39.3298 10.1441 38.7242 10.0415 38.0795C9.93895 37.4347 10.0108 36.7742 10.2496 36.1666V36.125C10.4678 35.5307 10.8291 34.9993 11.3014 34.5778C11.7738 34.1563 12.3428 33.8576 12.958 33.7083L16.083 32.875C16.476 32.7813 16.8259 32.5574 17.0755 32.2396C17.3252 31.9219 17.46 31.529 17.458 31.125V29V12.4583C17.4626 12.1028 17.5893 11.7597 17.8169 11.4866C18.0445 11.2135 18.3591 11.027 18.708 10.9583L35.4163 7.91663C35.7234 7.88062 36.0334 7.95442 36.2913 8.12496C36.4084 8.22107 36.5027 8.34189 36.5675 8.47877C36.6324 8.61564 36.6661 8.76518 36.6663 8.91663V30.2083Z" fill="url(#paint2_radial_75_973)"/>
<path fill-rule="evenodd" clip-rule="evenodd" d="M36.6663 30.2083V31.6666C36.6658 32.6028 36.5821 33.537 36.4163 34.4583C36.3354 34.9279 36.1609 35.3764 35.9032 35.7773C35.6455 36.1781 35.3099 36.5231 34.9163 36.7916H34.8746C34.0439 37.422 33.0414 37.7853 31.9996 37.8333L31.208 37.9166C30.5867 37.9547 29.9652 37.8463 29.3934 37.6003C28.8217 37.3542 28.3157 36.9773 27.9163 36.5C27.5007 35.9965 27.2274 35.3909 27.1249 34.7461C27.0223 34.1014 27.0941 33.4409 27.333 32.8333V32.7916C27.5512 32.1973 27.9124 31.6659 28.3848 31.2444C28.8571 30.8229 29.4261 30.5243 30.0413 30.375L33.1663 29.5416C33.5594 29.448 33.9092 29.224 34.1588 28.9063C34.4085 28.5886 34.5433 28.1957 34.5413 27.7916V25.6666V16.7083C34.5442 16.6049 34.5231 16.5022 34.4797 16.4082C34.4364 16.3142 34.3719 16.2316 34.2913 16.1666C34.2086 16.1055 34.1137 16.0627 34.0131 16.0412C33.9125 16.0196 33.8085 16.0198 33.708 16.0416L20.3746 18.75C20.1383 18.7877 19.9237 18.9099 19.7705 19.0937C19.6173 19.2776 19.5358 19.5107 19.5413 19.75V34V35.0416C19.5408 35.9778 19.4571 36.912 19.2913 37.8333C19.2104 38.3029 19.0359 38.7514 18.7782 39.1523C18.5205 39.5531 18.1849 39.8981 17.7913 40.1666H17.7496C16.9189 40.797 15.9164 41.1603 14.8746 41.2083L14.1246 41.25C13.5034 41.288 12.8818 41.1797 12.3101 40.9336C11.7384 40.6876 11.2324 40.3107 10.833 39.8333C10.4174 39.3298 10.1441 38.7242 10.0415 38.0795C9.93895 37.4347 10.0108 36.7742 10.2496 36.1666V36.125C10.4678 35.5307 10.8291 34.9993 11.3014 34.5778C11.7738 34.1563 12.3428 33.8576 12.958 33.7083L16.083 32.875C16.476 32.7813 16.8259 32.5574 17.0755 32.2396C17.3252 31.9219 17.46 31.529 17.458 31.125V29V12.4583C17.4626 12.1028 17.5893 11.7597 17.8169 11.4866C18.0445 11.2135 18.3591 11.027 18.708 10.9583L35.4163 7.91663C35.7234 7.88062 36.0334 7.95442 36.2913 8.12496C36.4084 8.22107 36.5027 8.34189 36.5675 8.47877C36.6324 8.61564 36.6661 8.76518 36.6663 8.91663V30.2083Z" fill="url(#paint3_linear_75_973)"/>
<path fill-rule="evenodd" clip-rule="evenodd" d="M36.6663 30.2083V31.6666C36.6658 32.6028 36.5821 33.537 36.4163 34.4583C36.3354 34.9279 36.1609 35.3764 35.9032 35.7773C35.6455 36.1781 35.3099 36.5231 34.9163 36.7916H34.8746C34.0439 37.422 33.0414 37.7853 31.9996 37.8333L31.208 37.9166C30.5867 37.9547 29.9652 37.8463 29.3934 37.6003C28.8217 37.3542 28.3157 36.9773 27.9163 36.5C27.5007 35.9965 27.2274 35.3909 27.1249 34.7461C27.0223 34.1014 27.0941 33.4409 27.333 32.8333V32.7916C27.5512 32.1973 27.9124 31.6659 28.3848 31.2444C28.8571 30.8229 29.4261 30.5243 30.0413 30.375L33.1663 29.5416C33.5594 29.448 33.9092 29.224 34.1588 28.9063C34.4085 28.5886 34.5433 28.1957 34.5413 27.7916V25.6666V16.7083C34.5442 16.6049 34.5231 16.5022 34.4797 16.4082C34.4364 16.3142 34.3719 16.2316 34.2913 16.1666C34.2086 16.1055 34.1137 16.0627 34.0131 16.0412C33.9125 16.0196 33.8085 16.0198 33.708 16.0416L20.3746 18.75C20.1383 18.7877 19.9237 18.9099 19.7705 19.0937C19.6173 19.2776 19.5358 19.5107 19.5413 19.75V34V35.0416C19.5408 35.9778 19.4571 36.912 19.2913 37.8333C19.2104 38.3029 19.0359 38.7514 18.7782 39.1523C18.5205 39.5531 18.1849 39.8981 17.7913 40.1666H17.7496C16.9189 40.797 15.9164 41.1603 14.8746 41.2083L14.1246 41.25C13.5034 41.288 12.8818 41.1797 12.3101 40.9336C11.7384 40.6876 11.2324 40.3107 10.833 39.8333C10.4174 39.3298 10.1441 38.7242 10.0415 38.0795C9.93895 37.4347 10.0108 36.7742 10.2496 36.1666V36.125C10.4678 35.5307 10.8291 34.9993 11.3014 34.5778C11.7738 34.1563 12.3428 33.8576 12.958 33.7083L16.083 32.875C16.476 32.7813 16.8259 32.5574 17.0755 32.2396C17.3252 31.9219 17.46 31.529 17.458 31.125V29V12.4583C17.4626 12.1028 17.5893 11.7597 17.8169 11.4866C18.0445 11.2135 18.3591 11.027 18.708 10.9583L35.4163 7.91663C35.7234 7.88062 36.0334 7.95442 36.2913 8.12496C36.4084 8.22107 36.5027 8.34189 36.5675 8.47877C36.6324 8.61564 36.6661 8.76518 36.6663 8.91663V30.2083Z" fill="white"/>
</g>
<defs>
<linearGradient id="paint0_linear_75_973" x1="25" y1="50" x2="25" y2="2.38419e-05" gradientUnits="userSpaceOnUse">
<stop stop-color="#FD355A"/>
<stop offset="1" stop-color="#FD5163"/>
</linearGradient>
<radialGradient id="paint1_radial_75_973" cx="0" cy="0" r="1" gradientUnits="userSpaceOnUse" gradientTransform="translate(15.6746 37.6618) rotate(90) scale(21.0888 21.0888)">
<stop stop-color="#7470F9"/>
<stop offset="1" stop-color="#7A70FE" stop-opacity="0"/>
</radialGradient>
<radialGradient id="paint2_radial_75_973" cx="0" cy="0" r="1" gradientUnits="userSpaceOnUse" gradientTransform="translate(32.3126 32.8483) rotate(-105.538) scale(17.0225)">
<stop stop-color="#4CA3F8"/>
<stop offset="0.362" stop-color="#4CA4F7"/>
<stop offset="1" stop-color="#4AA2F9" stop-opacity="0"/>
</radialGradient>
<linearGradient id="paint3_linear_75_973" x1="20.1254" y1="14.3266" x2="27.4692" y2="27.6587" gradientUnits="userSpaceOnUse">
<stop stop-color="#FF6380"/>
<stop offset="1" stop-color="#F65E79" stop-opacity="0"/>
</linearGradient>
<clipPath id="clip0_75_973">
<rect width="50" height="50" fill="white"/>
</clipPath>
</defs>
</svg>
