<svg width="20" height="23" viewBox="0 0 20 23" fill="none" xmlns="http://www.w3.org/2000/svg">
<path d="M16 7.48877C16 5.89747 15.3679 4.37135 14.2426 3.24613C13.1174 2.12091 11.5913 1.48877 10 1.48877C8.4087 1.48877 6.88258 2.12091 5.75736 3.24613C4.63214 4.37135 4 5.89747 4 7.48877C4 14.4888 1 16.4888 1 16.4888H19C19 16.4888 16 14.4888 16 7.48877Z" stroke="#EFEFEF" stroke-width="2" stroke-linecap="round" stroke-linejoin="round"/>
<path d="M11.7295 20.4888C11.5537 20.7918 11.3014 21.0434 10.9978 21.2183C10.6941 21.3932 10.3499 21.4852 9.99953 21.4852C9.64915 21.4852 9.30492 21.3932 9.0013 21.2183C8.69769 21.0434 8.44534 20.7918 8.26953 20.4888" stroke="#EFEFEF" stroke-width="2" stroke-linecap="round" stroke-linejoin="round"/>
</svg>
