<svg width="34" height="34" viewBox="0 0 34 34" fill="none" xmlns="http://www.w3.org/2000/svg">
<rect width="34" height="34" rx="4" fill="#8E6147"/>
<path d="M22.25 22.8335H11.75C11.5108 22.8335 11.3125 22.6352 11.3125 22.396C11.3125 22.1568 11.5108 21.9585 11.75 21.9585H22.25C22.4892 21.9585 22.6875 22.1568 22.6875 22.396C22.6875 22.6352 22.4892 22.8335 22.25 22.8335Z" fill="#F7E5CD"/>
<path d="M21.0958 12.0301C19.9641 10.8985 18.8558 10.8693 17.695 12.0301L16.9891 12.736C16.9308 12.7943 16.9075 12.8876 16.9308 12.9693C17.3741 14.5151 18.6108 15.7518 20.1566 16.1951C20.18 16.201 20.2033 16.2068 20.2267 16.2068C20.2908 16.2068 20.3491 16.1835 20.3958 16.1368L21.0958 15.431C21.6733 14.8593 21.9533 14.3051 21.9533 13.7451C21.9591 13.1676 21.6792 12.6076 21.0958 12.0301Z" fill="#F7E5CD"/>
<path d="M19.1049 16.726C18.9357 16.6443 18.7724 16.5626 18.6149 16.4693C18.4865 16.3935 18.364 16.3118 18.2415 16.2243C18.1424 16.1601 18.0257 16.0668 17.9149 15.9735C17.9032 15.9676 17.8624 15.9326 17.8157 15.886C17.6232 15.7226 17.4074 15.5126 17.2149 15.2793C17.1974 15.2676 17.1682 15.2268 17.1274 15.1743C17.069 15.1043 16.9699 14.9876 16.8824 14.8535C16.8124 14.766 16.7307 14.6376 16.6549 14.5093C16.5615 14.3518 16.4799 14.1943 16.3982 14.031C16.2911 13.8015 15.99 13.7334 15.8109 13.9124L12.5307 17.1926C12.4549 17.2685 12.3849 17.4143 12.3674 17.5135L12.0524 19.7476C11.994 20.1443 12.1049 20.5176 12.3499 20.7685C12.5599 20.9726 12.8515 21.0835 13.1665 21.0835C13.2365 21.0835 13.3065 21.0776 13.3765 21.066L15.6165 20.751C15.7215 20.7335 15.8674 20.6635 15.9374 20.5876L19.223 17.302C19.3985 17.1265 19.3326 16.8246 19.1049 16.726Z" fill="#F7E5CD"/>
</svg>
