<svg width="48" height="51" viewBox="0 0 48 51" fill="none" xmlns="http://www.w3.org/2000/svg">
<path d="M44.5664 0.0737305H3.4375C2.02874 0.0737305 0.886719 1.32908 0.886719 2.87764V48.088C0.886719 49.6366 2.02874 50.892 3.4375 50.892H44.5664C45.9752 50.892 47.1172 49.6366 47.1172 48.088V2.87764C47.1172 1.32908 45.9752 0.0737305 44.5664 0.0737305Z" fill="#3D5A98"/>
<path d="M32.7813 50.8881V31.2092H38.7891L39.6875 23.5403H32.7813V18.6452C32.7813 16.4253 33.3438 14.9096 36.2383 14.9096H39.9336V8.03933C38.1442 7.83433 36.3459 7.73686 34.5469 7.74735C29.2266 7.74735 25.5625 11.3113 25.5625 17.8852V23.5403H19.5547V31.2092H25.5625V50.8881H32.7813Z" fill="white"/>
</svg>
