<svg width="19" height="21" viewBox="0 0 19 21" fill="none" xmlns="http://www.w3.org/2000/svg">
<path d="M17.836 19.9014V17.8014C17.8367 17.2482 17.7283 16.7004 17.517 16.1892C17.3058 15.6779 16.9959 15.2133 16.605 14.822C16.2141 14.4306 15.7499 14.1201 15.2389 13.9083C14.7279 13.6964 14.1802 13.5874 13.627 13.5874H5.209C4.0927 13.5874 3.02213 14.0308 2.23279 14.8202C1.44345 15.6095 1 16.6801 1 17.7964V19.8964" stroke="#EFEFEF" stroke-width="1.6" stroke-linecap="round" stroke-linejoin="round"/>
<path d="M9.0672 9.14417C11.2951 9.14417 13.1012 7.33809 13.1012 5.11017C13.1012 2.88226 11.2951 1.07617 9.0672 1.07617C6.83929 1.07617 5.0332 2.88226 5.0332 5.11017C5.0332 7.33809 6.83929 9.14417 9.0672 9.14417Z" stroke="#EFEFEF" stroke-width="1.6" stroke-linecap="round" stroke-linejoin="round"/>
</svg>
