<svg width="18" height="21" viewBox="0 0 18 21" fill="none" xmlns="http://www.w3.org/2000/svg">
<path fill-rule="evenodd" clip-rule="evenodd" d="M4 5.48877C4 2.72735 6.23858 0.48877 9 0.48877C11.7614 0.48877 14 2.72735 14 5.48877V6.48877H16C16.5201 6.48877 16.9534 6.88743 16.9965 7.40572L17.9965 19.4057C18.0198 19.6844 17.9252 19.9601 17.7359 20.1659C17.5465 20.3717 17.2797 20.4888 17 20.4888H1C0.720351 20.4888 0.453476 20.3717 0.264121 20.1659C0.0747659 19.9601 -0.0197664 19.6844 0.00345746 19.4057L1.00346 7.40572C1.04665 6.88743 1.47991 6.48877 2 6.48877H4V5.48877ZM4 8.48877V9.48877C4 10.0411 4.44772 10.4888 5 10.4888C5.55229 10.4888 6 10.0411 6 9.48877V8.48877H12V9.48877C12 10.0411 12.4477 10.4888 13 10.4888C13.5523 10.4888 14 10.0411 14 9.48877V8.48877H15.0799L15.9132 18.4888H2.0868L2.92014 8.48877H4ZM12 6.48877H6V5.48877C6 3.83192 7.34315 2.48877 9 2.48877C10.6569 2.48877 12 3.83192 12 5.48877V6.48877Z" fill="#EFEFEF"/>
</svg>
