<svg width="50" height="56" viewBox="0 0 50 56" fill="none" xmlns="http://www.w3.org/2000/svg">
<g clip-path="url(#clip0_75_966)">
<path d="M43.7063 10.9097C43.667 10.6319 43.4172 10.4782 43.2107 10.4612C41.6885 10.3498 40.1662 10.2393 38.6438 10.1296C38.6438 10.1296 35.615 7.20057 35.2826 6.87637C34.95 6.55236 34.3004 6.65091 34.0482 6.72321C34.0111 6.73386 33.3865 6.92165 32.3533 7.2331C31.3416 4.39711 29.5561 1.79094 26.4148 1.79094C26.3281 1.79094 26.2389 1.79437 26.1496 1.79931C25.2563 0.648438 24.1496 0.148438 23.1938 0.148438C15.8764 0.148438 12.3805 9.05921 11.2844 13.5874C8.44102 14.4456 6.42109 15.0558 6.16309 15.1347C4.57598 15.6197 4.52578 15.6684 4.31738 17.1252C4.16055 18.2282 0.0078125 49.5122 0.0078125 49.5122L32.3668 55.4182L49.9 51.7234C49.9 51.7234 43.7449 11.1874 43.7063 10.9097ZM30.5648 7.77192L27.8268 8.59745C27.8277 8.40947 27.8287 8.22454 27.8287 8.0223C27.8287 6.25974 27.5775 4.8406 27.1746 3.7156C28.7932 3.91347 29.8711 5.70742 30.5648 7.77192ZM25.1668 4.0651C25.6168 5.16347 25.9094 6.73976 25.9094 8.86685C25.9094 8.97568 25.9084 9.07519 25.9074 9.17584C24.1268 9.71313 22.1918 10.2965 20.2525 10.8817C21.3414 6.78809 23.3824 4.81092 25.1668 4.0651ZM22.9928 2.06035C23.3086 2.06035 23.6268 2.1648 23.9313 2.36895C21.5861 3.44391 19.0725 6.15129 18.0109 11.5579L13.541 12.9064C14.7844 8.78257 17.7369 2.06035 22.9928 2.06035Z" fill="#95BF46"/>
<path d="M43.2096 10.4609C41.6873 10.3495 40.165 10.239 38.6426 10.1293C38.6426 10.1293 35.6139 7.20029 35.2814 6.87609C35.157 6.75546 34.9893 6.69363 34.8139 6.66699L32.3672 55.4176L49.8988 51.7231C49.8988 51.7231 43.7437 11.1872 43.7051 10.9094C43.6658 10.6316 43.416 10.4779 43.2096 10.4609Z" fill="#5E8E3E"/>
<path d="M26.4143 19.8981L24.2523 26.1626C24.2523 26.1626 22.3582 25.1778 20.0363 25.1778C16.6324 25.1778 16.4611 27.2586 16.4611 27.783C16.4611 30.6441 24.1174 31.7404 24.1174 38.442C24.1174 43.7147 20.6844 47.1099 16.0555 47.1099C10.5008 47.1099 7.66016 43.7423 7.66016 43.7423L9.14746 38.9554C9.14746 38.9554 12.0674 41.3973 14.5312 41.3973C16.1412 41.3973 16.7961 40.1626 16.7961 39.2603C16.7961 35.5282 10.5148 35.3618 10.5148 29.2291C10.5148 24.0676 14.318 19.0728 21.9949 19.0728C24.9529 19.0728 26.4143 19.8981 26.4143 19.8981Z" fill="white"/>
</g>
<defs>
<clipPath id="clip0_75_966">
<rect width="50" height="55.5556" fill="white"/>
</clipPath>
</defs>
</svg>
