<svg width="177" height="177" viewBox="0 0 177 177" fill="none" xmlns="http://www.w3.org/2000/svg">
<path d="M177 88.5C177 137.377 137.377 177 88.5 177C39.6228 177 0 137.377 0 88.5C0 39.6228 39.6228 0 88.5 0C137.377 0 177 39.6228 177 88.5Z" fill="#ECECEC"/>
<path d="M171 88.5C171 133.511 134.511 170 89.5 170C44.4888 170 8 133.511 8 88.5C8 43.4888 44.4888 7 89.5 7C134.511 7 171 43.4888 171 88.5Z" fill="#BCBCBC"/>
<path d="M165 88.5C165 130.198 131.198 164 89.5 164C47.8025 164 14 130.198 14 88.5C14 46.8025 47.8025 13 89.5 13C131.198 13 165 46.8025 165 88.5Z" fill="#888888"/>
<path d="M159 88.5C159 126.884 127.884 158 89.5 158C51.1162 158 20 126.884 20 88.5C20 50.1162 51.1162 19 89.5 19C127.884 19 159 50.1162 159 88.5Z" fill="#696969"/>
<path d="M45.88 96.68C48.44 94.5467 50.48 92.7733 52 91.36C53.52 89.92 54.7867 88.4267 55.8 86.88C56.8133 85.3333 57.32 83.8133 57.32 82.32C57.32 80.96 57 79.8933 56.36 79.12C55.72 78.3467 54.7333 77.96 53.4 77.96C52.0667 77.96 51.04 78.4133 50.32 79.32C49.6 80.2 49.2267 81.4133 49.2 82.96H43.76C43.8667 79.76 44.8133 77.3333 46.6 75.68C48.4133 74.0267 50.7067 73.2 53.48 73.2C56.52 73.2 58.8533 74.0133 60.48 75.64C62.1067 77.24 62.92 79.36 62.92 82C62.92 84.08 62.36 86.0667 61.24 87.96C60.12 89.8533 58.84 91.5067 57.4 92.92C55.96 94.3067 54.08 95.9867 51.76 97.96H63.56V102.6H43.8V98.44L45.88 96.68ZM67.0888 88.04C67.0888 83.4267 67.9154 79.8133 69.5688 77.2C71.2488 74.5867 74.0221 73.28 77.8888 73.28C81.7554 73.28 84.5154 74.5867 86.1688 77.2C87.8488 79.8133 88.6888 83.4267 88.6888 88.04C88.6888 92.68 87.8488 96.32 86.1688 98.96C84.5154 101.6 81.7554 102.92 77.8888 102.92C74.0221 102.92 71.2488 101.6 69.5688 98.96C67.9154 96.32 67.0888 92.68 67.0888 88.04ZM83.1688 88.04C83.1688 86.0667 83.0354 84.4133 82.7688 83.08C82.5288 81.72 82.0221 80.6133 81.2488 79.76C80.5021 78.9067 79.3821 78.48 77.8888 78.48C76.3954 78.48 75.2621 78.9067 74.4888 79.76C73.7421 80.6133 73.2354 81.72 72.9688 83.08C72.7288 84.4133 72.6088 86.0667 72.6088 88.04C72.6088 90.0667 72.7288 91.7733 72.9688 93.16C73.2088 94.52 73.7154 95.6267 74.4888 96.48C75.2621 97.3067 76.3954 97.72 77.8888 97.72C79.3821 97.72 80.5154 97.3067 81.2888 96.48C82.0621 95.6267 82.5688 94.52 82.8088 93.16C83.0488 91.7733 83.1688 90.0667 83.1688 88.04ZM94.7081 96.68C97.2681 94.5467 99.3081 92.7733 100.828 91.36C102.348 89.92 103.615 88.4267 104.628 86.88C105.641 85.3333 106.148 83.8133 106.148 82.32C106.148 80.96 105.828 79.8933 105.188 79.12C104.548 78.3467 103.561 77.96 102.228 77.96C100.895 77.96 99.8681 78.4133 99.1481 79.32C98.4281 80.2 98.0548 81.4133 98.0281 82.96H92.5881C92.6948 79.76 93.6415 77.3333 95.4281 75.68C97.2415 74.0267 99.5348 73.2 102.308 73.2C105.348 73.2 107.681 74.0133 109.308 75.64C110.935 77.24 111.748 79.36 111.748 82C111.748 84.08 111.188 86.0667 110.068 87.96C108.948 89.8533 107.668 91.5067 106.228 92.92C104.788 94.3067 102.908 95.9867 100.588 97.96H112.388V102.6H92.6281V98.44L94.7081 96.68ZM117.677 96.68C120.237 94.5467 122.277 92.7733 123.797 91.36C125.317 89.92 126.584 88.4267 127.597 86.88C128.61 85.3333 129.117 83.8133 129.117 82.32C129.117 80.96 128.797 79.8933 128.157 79.12C127.517 78.3467 126.53 77.96 125.197 77.96C123.864 77.96 122.837 78.4133 122.117 79.32C121.397 80.2 121.024 81.4133 120.997 82.96H115.557C115.664 79.76 116.61 77.3333 118.397 75.68C120.21 74.0267 122.504 73.2 125.277 73.2C128.317 73.2 130.65 74.0133 132.277 75.64C133.904 77.24 134.717 79.36 134.717 82C134.717 84.08 134.157 86.0667 133.037 87.96C131.917 89.8533 130.637 91.5067 129.197 92.92C127.757 94.3067 125.877 95.9867 123.557 97.96H135.357V102.6H115.597V98.44L117.677 96.68Z" fill="white"/>
</svg>
