<svg width="177" height="177" viewBox="0 0 177 177" fill="none" xmlns="http://www.w3.org/2000/svg">
<path d="M177 88.5C177 137.377 137.377 177 88.5 177C39.6228 177 0 137.377 0 88.5C0 39.6228 39.6228 0 88.5 0C137.377 0 177 39.6228 177 88.5Z" fill="#ECECEC"/>
<path d="M171 88.5C171 133.511 134.511 170 89.5 170C44.4888 170 8 133.511 8 88.5C8 43.4888 44.4888 7 89.5 7C134.511 7 171 43.4888 171 88.5Z" fill="#696969" fill-opacity="0.37"/>
<path d="M165 88.5C165 130.198 131.198 164 89.5 164C47.8025 164 14 130.198 14 88.5C14 46.8025 47.8025 13 89.5 13C131.198 13 165 46.8025 165 88.5Z" fill="#696969" fill-opacity="0.63"/>
<path d="M159 88.5C159 126.884 127.884 158 89.5 158C51.1162 158 20 126.884 20 88.5C20 50.1162 51.1162 19 89.5 19C127.884 19 159 50.1162 159 88.5Z" fill="#696969"/>
<path d="M46.44 79V73.84H56.08V103H50.32V79H46.44ZM68.0922 94.8C68.3055 95.9733 68.7855 96.88 69.5322 97.52C70.3055 98.1333 71.3322 98.44 72.6122 98.44C74.2655 98.44 75.4655 97.76 76.2122 96.4C76.9589 95.0133 77.3322 92.6933 77.3322 89.44C76.7189 90.2933 75.8522 90.96 74.7322 91.44C73.6389 91.92 72.4522 92.16 71.1722 92.16C69.4655 92.16 67.9189 91.8133 66.5322 91.12C65.1722 90.4 64.0922 89.3467 63.2922 87.96C62.4922 86.5467 62.0922 84.84 62.0922 82.84C62.0922 79.88 62.9722 77.5333 64.7322 75.8C66.4922 74.04 68.8922 73.16 71.9322 73.16C75.7189 73.16 78.3855 74.3733 79.9322 76.8C81.5055 79.2267 82.2922 82.88 82.2922 87.76C82.2922 91.2267 81.9855 94.0667 81.3722 96.28C80.7855 98.4933 79.7589 100.173 78.2922 101.32C76.8522 102.467 74.8789 103.04 72.3722 103.04C70.3989 103.04 68.7189 102.667 67.3322 101.92C65.9455 101.147 64.8789 100.147 64.1322 98.92C63.4122 97.6667 62.9989 96.2933 62.8922 94.8H68.0922ZM72.3322 87.6C73.7189 87.6 74.8122 87.1733 75.6122 86.32C76.4122 85.4667 76.8122 84.32 76.8122 82.88C76.8122 81.3067 76.3855 80.0933 75.5322 79.24C74.7055 78.36 73.5722 77.92 72.1322 77.92C70.6922 77.92 69.5455 78.3733 68.6922 79.28C67.8655 80.16 67.4522 81.3333 67.4522 82.8C67.4522 84.2133 67.8522 85.3733 68.6522 86.28C69.4789 87.16 70.7055 87.6 72.3322 87.6ZM91.5313 87.56C88.8646 86.1733 87.5313 84.0267 87.5313 81.12C87.5313 79.68 87.8913 78.3733 88.6113 77.2C89.3579 76 90.4646 75.0533 91.9313 74.36C93.4246 73.64 95.2379 73.28 97.3713 73.28C99.5046 73.28 101.305 73.64 102.771 74.36C104.265 75.0533 105.371 76 106.091 77.2C106.838 78.3733 107.211 79.68 107.211 81.12C107.211 82.5867 106.851 83.88 106.131 85C105.411 86.0933 104.451 86.9467 103.251 87.56C104.718 88.2 105.865 89.1333 106.691 90.36C107.518 91.5867 107.931 93.04 107.931 94.72C107.931 96.5333 107.465 98.12 106.531 99.48C105.625 100.813 104.371 101.84 102.771 102.56C101.171 103.28 99.3713 103.64 97.3713 103.64C95.3713 103.64 93.5713 103.28 91.9713 102.56C90.3979 101.84 89.1446 100.813 88.2113 99.48C87.3046 98.12 86.8513 96.5333 86.8513 94.72C86.8513 93.04 87.2646 91.5867 88.0913 90.36C88.9179 89.1067 90.0646 88.1733 91.5313 87.56ZM101.771 81.92C101.771 80.6133 101.371 79.6 100.571 78.88C99.7979 78.16 98.7313 77.8 97.3713 77.8C96.0379 77.8 94.9713 78.16 94.1713 78.88C93.3979 79.6 93.0113 80.6267 93.0113 81.96C93.0113 83.16 93.4113 84.12 94.2113 84.84C95.0379 85.56 96.0913 85.92 97.3713 85.92C98.6513 85.92 99.7046 85.56 100.531 84.84C101.358 84.0933 101.771 83.12 101.771 81.92ZM97.3713 90C95.8513 90 94.6113 90.3867 93.6513 91.16C92.7179 91.9333 92.2513 93.04 92.2513 94.48C92.2513 95.8133 92.7046 96.9067 93.6113 97.76C94.5446 98.5867 95.7979 99 97.3713 99C98.9446 99 100.185 98.5733 101.091 97.72C101.998 96.8667 102.451 95.7867 102.451 94.48C102.451 93.0667 101.985 91.9733 101.051 91.2C100.118 90.4 98.8913 90 97.3713 90ZM114.114 96.68C116.674 94.5467 118.714 92.7733 120.234 91.36C121.754 89.92 123.021 88.4267 124.034 86.88C125.048 85.3333 125.554 83.8133 125.554 82.32C125.554 80.96 125.234 79.8933 124.594 79.12C123.954 78.3467 122.968 77.96 121.634 77.96C120.301 77.96 119.274 78.4133 118.554 79.32C117.834 80.2 117.461 81.4133 117.434 82.96H111.994C112.101 79.76 113.048 77.3333 114.834 75.68C116.648 74.0267 118.941 73.2 121.714 73.2C124.754 73.2 127.088 74.0133 128.714 75.64C130.341 77.24 131.154 79.36 131.154 82C131.154 84.08 130.594 86.0667 129.474 87.96C128.354 89.8533 127.074 91.5067 125.634 92.92C124.194 94.3067 122.314 95.9867 119.994 97.96H131.794V102.6H112.034V98.44L114.114 96.68Z" fill="white"/>
</svg>
