<svg width="177" height="177" viewBox="0 0 177 177" fill="none" xmlns="http://www.w3.org/2000/svg">
<path d="M177 88.5C177 137.377 137.377 177 88.5 177C39.6228 177 0 137.377 0 88.5C0 39.6228 39.6228 0 88.5 0C137.377 0 177 39.6228 177 88.5Z" fill="#ECECEC"/>
<path d="M171 88.5C171 133.511 134.511 170 89.5 170C44.4888 170 8 133.511 8 88.5C8 43.4888 44.4888 7 89.5 7C134.511 7 171 43.4888 171 88.5Z" fill="#696969" fill-opacity="0.37"/>
<path d="M165 88.5C165 130.198 131.198 164 89.5 164C47.8025 164 14 130.198 14 88.5C14 46.8025 47.8025 13 89.5 13C131.198 13 165 46.8025 165 88.5Z" fill="#696969" fill-opacity="0.63"/>
<path d="M159 88.5C159 126.884 127.884 158 89.5 158C51.1162 158 20 126.884 20 88.5C20 50.1162 51.1162 19 89.5 19C127.884 19 159 50.1162 159 88.5Z" fill="#696969"/>
</svg>
