<svg width="177" height="177" viewBox="0 0 177 177" fill="none" xmlns="http://www.w3.org/2000/svg">
<path d="M177 88.5C177 137.377 137.377 177 88.5 177C39.6228 177 0 137.377 0 88.5C0 39.6228 39.6228 0 88.5 0C137.377 0 177 39.6228 177 88.5Z" fill="#ECECEC"/>
<path d="M171 88.5C171 133.511 134.511 170 89.5 170C44.4888 170 8 133.511 8 88.5C8 43.4888 44.4888 7 89.5 7C134.511 7 171 43.4888 171 88.5Z" fill="#BCBCBC"/>
<path d="M165 88.5C165 130.198 131.198 164 89.5 164C47.8025 164 14 130.198 14 88.5C14 46.8025 47.8025 13 89.5 13C131.198 13 165 46.8025 165 88.5Z" fill="#888888"/>
<path d="M159 88.5C159 126.884 127.884 158 89.5 158C51.1162 158 20 126.884 20 88.5C20 50.1162 51.1162 19 89.5 19C127.884 19 159 50.1162 159 88.5Z" fill="#696969"/>
<path d="M49.88 96.68C52.44 94.5467 54.48 92.7733 56 91.36C57.52 89.92 58.7867 88.4267 59.8 86.88C60.8133 85.3333 61.32 83.8133 61.32 82.32C61.32 80.96 61 79.8933 60.36 79.12C59.72 78.3467 58.7333 77.96 57.4 77.96C56.0667 77.96 55.04 78.4133 54.32 79.32C53.6 80.2 53.2267 81.4133 53.2 82.96H47.76C47.8667 79.76 48.8133 77.3333 50.6 75.68C52.4133 74.0267 54.7067 73.2 57.48 73.2C60.52 73.2 62.8533 74.0133 64.48 75.64C66.1067 77.24 66.92 79.36 66.92 82C66.92 84.08 66.36 86.0667 65.24 87.96C64.12 89.8533 62.84 91.5067 61.4 92.92C59.96 94.3067 58.08 95.9867 55.76 97.96H67.56V102.6H47.8V98.44L49.88 96.68ZM71.0888 88.04C71.0888 83.4267 71.9154 79.8133 73.5688 77.2C75.2488 74.5867 78.0221 73.28 81.8888 73.28C85.7554 73.28 88.5154 74.5867 90.1688 77.2C91.8488 79.8133 92.6888 83.4267 92.6888 88.04C92.6888 92.68 91.8488 96.32 90.1688 98.96C88.5154 101.6 85.7554 102.92 81.8888 102.92C78.0221 102.92 75.2488 101.6 73.5688 98.96C71.9154 96.32 71.0888 92.68 71.0888 88.04ZM87.1688 88.04C87.1688 86.0667 87.0354 84.4133 86.7688 83.08C86.5288 81.72 86.0221 80.6133 85.2488 79.76C84.5021 78.9067 83.3821 78.48 81.8888 78.48C80.3954 78.48 79.2621 78.9067 78.4888 79.76C77.7421 80.6133 77.2354 81.72 76.9688 83.08C76.7288 84.4133 76.6088 86.0667 76.6088 88.04C76.6088 90.0667 76.7288 91.7733 76.9688 93.16C77.2088 94.52 77.7154 95.6267 78.4888 96.48C79.2621 97.3067 80.3954 97.72 81.8888 97.72C83.3821 97.72 84.5154 97.3067 85.2888 96.48C86.0621 95.6267 86.5688 94.52 86.8088 93.16C87.0488 91.7733 87.1688 90.0667 87.1688 88.04ZM98.7081 96.68C101.268 94.5467 103.308 92.7733 104.828 91.36C106.348 89.92 107.615 88.4267 108.628 86.88C109.641 85.3333 110.148 83.8133 110.148 82.32C110.148 80.96 109.828 79.8933 109.188 79.12C108.548 78.3467 107.561 77.96 106.228 77.96C104.895 77.96 103.868 78.4133 103.148 79.32C102.428 80.2 102.055 81.4133 102.028 82.96H96.5881C96.6948 79.76 97.6415 77.3333 99.4281 75.68C101.241 74.0267 103.535 73.2 106.308 73.2C109.348 73.2 111.681 74.0133 113.308 75.64C114.935 77.24 115.748 79.36 115.748 82C115.748 84.08 115.188 86.0667 114.068 87.96C112.948 89.8533 111.668 91.5067 110.228 92.92C108.788 94.3067 106.908 95.9867 104.588 97.96H116.388V102.6H96.6281V98.44L98.7081 96.68ZM119.237 79V73.84H128.877V103H123.117V79H119.237Z" fill="white"/>
</svg>
