<svg width="50" height="36" viewBox="0 0 50 36" fill="none" xmlns="http://www.w3.org/2000/svg">
<g clip-path="url(#clip0_75_970)">
<path d="M48.8957 5.4834C48.6089 4.42355 48.0495 3.45731 47.2732 2.68091C46.4968 1.90452 45.5306 1.34504 44.4707 1.0582C40.5907 0 24.9746 0 24.9746 0C24.9746 0 9.35785 0.0320312 5.47777 1.09023C4.41791 1.37709 3.45168 1.93659 2.67532 2.71303C1.89895 3.48946 1.33953 4.45574 1.05277 5.51563C-0.120861 12.4098 -0.576134 22.9148 1.085 29.5332C1.37179 30.5931 1.93122 31.5593 2.70759 32.3357C3.48395 33.1121 4.45016 33.6716 5.51 33.9584C9.39008 35.0166 25.0065 35.0166 25.0065 35.0166C25.0065 35.0166 40.6227 35.0166 44.5026 33.9584C45.5625 33.6716 46.5287 33.1121 47.3051 32.3357C48.0815 31.5593 48.641 30.5931 48.9278 29.5332C50.1657 22.6293 50.5471 12.1307 48.8957 5.4834Z" fill="#FF0000"/>
<path d="M20.0039 25.0119L32.9586 17.5084L20.0039 10.0049V25.0119Z" fill="white"/>
</g>
<defs>
<clipPath id="clip0_75_970">
<rect width="50" height="35.1562" fill="white"/>
</clipPath>
</defs>
</svg>
